# compute-mfcc-feats --write-utt2dur=ark,t:exp/make_mfcc/utt2dur.6 --verbose=2 --config=conf/mfcc.conf scp,p:exp/make_mfcc/wav_sre16_major.6.scp ark:- | copy-feats --write-num-frames=ark,t:exp/make_mfcc/utt2num_frames.6 --compress=true ark:- ark,scp:/home/kaldinew/kaldi/egs/sre16/v2-callhome/mfcc/raw_mfcc_sre16_major.6.ark,/home/kaldinew/kaldi/egs/sre16/v2-callhome/mfcc/raw_mfcc_sre16_major.6.scp 
# Started at Mon Jun 21 15:37:54 EDT 2021
#
copy-feats --write-num-frames=ark,t:exp/make_mfcc/utt2num_frames.6 --compress=true ark:- ark,scp:/home/kaldinew/kaldi/egs/sre16/v2-callhome/mfcc/raw_mfcc_sre16_major.6.ark,/home/kaldinew/kaldi/egs/sre16/v2-callhome/mfcc/raw_mfcc_sre16_major.6.scp 
compute-mfcc-feats --write-utt2dur=ark,t:exp/make_mfcc/utt2dur.6 --verbose=2 --config=conf/mfcc.conf scp,p:exp/make_mfcc/wav_sre16_major.6.scp ark:- 
ffmpeg version 3.4.8-0ubuntu0.2 Copyright (c) 2000-2020 the FFmpeg developers
  built with gcc 7 (Ubuntu 7.5.0-3ubuntu1~18.04)
  configuration: --prefix=/usr --extra-version=0ubuntu0.2 --toolchain=hardened --libdir=/usr/lib/x86_64-linux-gnu --incdir=/usr/include/x86_64-linux-gnu --enable-gpl --disable-stripping --enable-avresample --enable-avisynth --enable-gnutls --enable-ladspa --enable-libass --enable-libbluray --enable-libbs2b --enable-libcaca --enable-libcdio --enable-libflite --enable-libfontconfig --enable-libfreetype --enable-libfribidi --enable-libgme --enable-libgsm --enable-libmp3lame --enable-libmysofa --enable-libopenjpeg --enable-libopenmpt --enable-libopus --enable-libpulse --enable-librubberband --enable-librsvg --enable-libshine --enable-libsnappy --enable-libsoxr --enable-libspeex --enable-libssh --enable-libtheora --enable-libtwolame --enable-libvorbis --enable-libvpx --enable-libwavpack --enable-libwebp --enable-libx265 --enable-libxml2 --enable-libxvid --enable-libzmq --enable-libzvbi --enable-omx --enable-openal --enable-opengl --enable-sdl2 --enable-libdc1394 --enable-libdrm --enable-libiec61883 --enable-chromaprint --enable-frei0r --enable-libopencv --enable-libx264 --enable-shared
  libavutil      55. 78.100 / 55. 78.100
  libavcodec     57.107.100 / 57.107.100
  libavformat    57. 83.100 / 57. 83.100
  libavdevice    57. 10.100 / 57. 10.100
  libavfilter     6.107.100 /  6.107.100
  libavresample   3.  7.  0 /  3.  7.  0
  libswscale      4.  8.100 /  4.  8.100
  libswresample   2.  9.100 /  2.  9.100
  libpostproc    54.  7.100 / 54.  7.100
Guessed Channel Layout for Input Stream #0.0 : mono
Input #0, wav, from '/media/kaldinew/data2/large-farsdat/CD4/008/Fixed/008F06.wav':
  Duration: 00:02:08.77, bitrate: 352 kb/s
    Stream #0:0: Audio: pcm_s16le ([1][0][0][0] / 0x0001), 22050 Hz, mono, s16, 352 kb/s
Stream mapping:
  Stream #0:0 -> #0:0 (pcm_s16le (native) -> pcm_s16le (native))
Press [q] to stop, [?] for help
Output #0, wav, to 'pipe:':
  Metadata:
    ISFT            : Lavf57.83.100
    Stream #0:0: Audio: pcm_s16le ([1][0][0][0] / 0x0001), 8000 Hz, mono, s16, 128 kb/s
    Metadata:
VLOG[1] (compute-mfcc-feats[5.5.931~1-aecd]:Read():wave-reader.cc:249) Read in RIFF chunk size: 4294967295, data chunk size: 4294967295. Assume 'stream mode' (reading data to EOF).
      encoder         : Lavc57.107.100 pcm_s16le
size=     107kB time=00:00:06.87 bitrate= 128.1kbits/s speed= 6.7x    size=     247kB time=00:00:15.78 bitrate= 128.0kbits/s speed=9.59x    size=     665kB time=00:00:42.53 bitrate= 128.0kbits/s speed=19.8x    size=    1083kB time=00:01:09.28 bitrate= 128.0kbits/s speed=24.8x    size=    1501kB time=00:01:36.03 bitrate= 128.0kbits/s speed=27.9x    size=    1875kB time=00:02:00.00 bitrate= 128.0kbits/s speed=34.2x    
video:0kB audio:1875kB subtitle:0kB other streams:0kB global headers:0kB muxing overhead: 0.004062%
VLOG[2] (compute-mfcc-feats[5.5.931~1-aecd]:main():compute-mfcc-feats.cc:182) Processed features for key utt-008F06
ffmpeg version 3.4.8-0ubuntu0.2 Copyright (c) 2000-2020 the FFmpeg developers
  built with gcc 7 (Ubuntu 7.5.0-3ubuntu1~18.04)
  configuration: --prefix=/usr --extra-version=0ubuntu0.2 --toolchain=hardened --libdir=/usr/lib/x86_64-linux-gnu --incdir=/usr/include/x86_64-linux-gnu --enable-gpl --disable-stripping --enable-avresample --enable-avisynth --enable-gnutls --enable-ladspa --enable-libass --enable-libbluray --enable-libbs2b --enable-libcaca --enable-libcdio --enable-libflite --enable-libfontconfig --enable-libfreetype --enable-libfribidi --enable-libgme --enable-libgsm --enable-libmp3lame --enable-libmysofa --enable-libopenjpeg --enable-libopenmpt --enable-libopus --enable-libpulse --enable-librubberband --enable-librsvg --enable-libshine --enable-libsnappy --enable-libsoxr --enable-libspeex --enable-libssh --enable-libtheora --enable-libtwolame --enable-libvorbis --enable-libvpx --enable-libwavpack --enable-libwebp --enable-libx265 --enable-libxml2 --enable-libxvid --enable-libzmq --enable-libzvbi --enable-omx --enable-openal --enable-opengl --enable-sdl2 --enable-libdc1394 --enable-libdrm --enable-libiec61883 --enable-chromaprint --enable-frei0r --enable-libopencv --enable-libx264 --enable-shared
  libavutil      55. 78.100 / 55. 78.100
  libavcodec     57.107.100 / 57.107.100
  libavformat    57. 83.100 / 57. 83.100
  libavdevice    57. 10.100 / 57. 10.100
  libavfilter     6.107.100 /  6.107.100
  libavresample   3.  7.  0 /  3.  7.  0
  libswscale      4.  8.100 /  4.  8.100
  libswresample   2.  9.100 /  2.  9.100
  libpostproc    54.  7.100 / 54.  7.100
Guessed Channel Layout for Input Stream #0.0 : mono
Input #0, wav, from '/media/kaldinew/data2/large-farsdat/CD4/008/Fixed/008F07.wav':
  Duration: 00:02:18.09, bitrate: 352 kb/s
    Stream #0:0: Audio: pcm_s16le ([1][0][0][0] / 0x0001), 22050 Hz, mono, s16, 352 kb/s
Stream mapping:
  Stream #0:0 -> #0:0 (pcm_s16le (native) -> pcm_s16le (native))
Press [q] to stop, [?] for help
Output #0, wav, to 'pipe:':
  Metadata:
    ISFT            : Lavf57.83.100
    Stream #0:0: Audio: pcm_s16le ([1][0][0][0] / 0x0001), 8000 Hz, mono, s16, 128 kb/sVLOG[1] (compute-mfcc-feats[5.5.931~1-aecd]:Read():wave-reader.cc:249) Read in RIFF chunk size: 4294967295, data chunk size: 4294967295. Assume 'stream mode' (reading data to EOF).

    Metadata:
      encoder         : Lavc57.107.100 pcm_s16le
size=     142kB time=00:00:09.10 bitrate= 128.1kbits/s speed=13.4x    size=     560kB time=00:00:35.84 bitrate= 128.0kbits/s speed=28.7x    size=    1025kB time=00:01:05.57 bitrate= 128.0kbits/s speed=34.2x    size=    1875kB time=00:02:00.00 bitrate= 128.0kbits/s speed=52.1x    
video:0kB audio:1875kB subtitle:0kB other streams:0kB global headers:0kB muxing overhead: 0.004062%
VLOG[2] (compute-mfcc-feats[5.5.931~1-aecd]:main():compute-mfcc-feats.cc:182) Processed features for key utt-008F07
ffmpeg version 3.4.8-0ubuntu0.2 Copyright (c) 2000-2020 the FFmpeg developers
  built with gcc 7 (Ubuntu 7.5.0-3ubuntu1~18.04)
  configuration: --prefix=/usr --extra-version=0ubuntu0.2 --toolchain=hardened --libdir=/usr/lib/x86_64-linux-gnu --incdir=/usr/include/x86_64-linux-gnu --enable-gpl --disable-stripping --enable-avresample --enable-avisynth --enable-gnutls --enable-ladspa --enable-libass --enable-libbluray --enable-libbs2b --enable-libcaca --enable-libcdio --enable-libflite --enable-libfontconfig --enable-libfreetype --enable-libfribidi --enable-libgme --enable-libgsm --enable-libmp3lame --enable-libmysofa --enable-libopenjpeg --enable-libopenmpt --enable-libopus --enable-libpulse --enable-librubberband --enable-librsvg --enable-libshine --enable-libsnappy --enable-libsoxr --enable-libspeex --enable-libssh --enable-libtheora --enable-libtwolame --enable-libvorbis --enable-libvpx --enable-libwavpack --enable-libwebp --enable-libx265 --enable-libxml2 --enable-libxvid --enable-libzmq --enable-libzvbi --enable-omx --enable-openal --enable-opengl --enable-sdl2 --enable-libdc1394 --enable-libdrm --enable-libiec61883 --enable-chromaprint --enable-frei0r --enable-libopencv --enable-libx264 --enable-shared
  libavutil      55. 78.100 / 55. 78.100
  libavcodec     57.107.100 / 57.107.100
  libavformat    57. 83.100 / 57. 83.100
  libavdevice    57. 10.100 / 57. 10.100
  libavfilter     6.107.100 /  6.107.100
  libavresample   3.  7.  0 /  3.  7.  0
  libswscale      4.  8.100 /  4.  8.100
  libswresample   2.  9.100 /  2.  9.100
  libpostproc    54.  7.100 / 54.  7.100
Guessed Channel Layout for Input Stream #0.0 : mono
Input #0, wav, from '/media/kaldinew/data2/large-farsdat/CD4/008/Fixed/008F08.wav':
  Duration: 00:02:00.72, bitrate: 352 kb/s
    Stream #0:0: Audio: pcm_s16le ([1][0][0][0] / 0x0001), 22050 Hz, mono, s16, 352 kb/s
Stream mapping:
  Stream #0:0 -> #0:0 (pcm_s16le (native) -> pcm_s16le (native))
Press [q] to stop, [?] for help
Output #0, wav, to 'pipe:':
  Metadata:
    ISFT            : Lavf57.83.100
VLOG[1] (compute-mfcc-feats[5.5.931~1-aecd]:Read():wave-reader.cc:249) Read in RIFF chunk size: 4294967295, data chunk size: 4294967295. Assume 'stream mode' (reading data to EOF).
    Stream #0:0: Audio: pcm_s16le ([1][0][0][0] / 0x0001), 8000 Hz, mono, s16, 128 kb/s
    Metadata:
      encoder         : Lavc57.107.100 pcm_s16le
size=     107kB time=00:00:06.87 bitrate= 128.1kbits/s speed=9.18x    size=     572kB time=00:00:36.59 bitrate= 128.0kbits/s speed=26.1x    size=    1036kB time=00:01:06.31 bitrate= 128.0kbits/s speed=33.7x    size=    1826kB time=00:01:56.84 bitrate= 128.0kbits/s speed=39.7x    size=    1875kB time=00:02:00.00 bitrate= 128.0kbits/s speed=40.8x    
video:0kB audio:1875kB subtitle:0kB other streams:0kB global headers:0kB muxing overhead: 0.004062%
VLOG[2] (compute-mfcc-feats[5.5.931~1-aecd]:main():compute-mfcc-feats.cc:182) Processed features for key utt-008F08
ffmpeg version 3.4.8-0ubuntu0.2 Copyright (c) 2000-2020 the FFmpeg developers
  built with gcc 7 (Ubuntu 7.5.0-3ubuntu1~18.04)
  configuration: --prefix=/usr --extra-version=0ubuntu0.2 --toolchain=hardened --libdir=/usr/lib/x86_64-linux-gnu --incdir=/usr/include/x86_64-linux-gnu --enable-gpl --disable-stripping --enable-avresample --enable-avisynth --enable-gnutls --enable-ladspa --enable-libass --enable-libbluray --enable-libbs2b --enable-libcaca --enable-libcdio --enable-libflite --enable-libfontconfig --enable-libfreetype --enable-libfribidi --enable-libgme --enable-libgsm --enable-libmp3lame --enable-libmysofa --enable-libopenjpeg --enable-libopenmpt --enable-libopus --enable-libpulse --enable-librubberband --enable-librsvg --enable-libshine --enable-libsnappy --enable-libsoxr --enable-libspeex --enable-libssh --enable-libtheora --enable-libtwolame --enable-libvorbis --enable-libvpx --enable-libwavpack --enable-libwebp --enable-libx265 --enable-libxml2 --enable-libxvid --enable-libzmq --enable-libzvbi --enable-omx --enable-openal --enable-opengl --enable-sdl2 --enable-libdc1394 --enable-libdrm --enable-libiec61883 --enable-chromaprint --enable-frei0r --enable-libopencv --enable-libx264 --enable-shared
  libavutil      55. 78.100 / 55. 78.100
  libavcodec     57.107.100 / 57.107.100
  libavformat    57. 83.100 / 57. 83.100
  libavdevice    57. 10.100 / 57. 10.100
  libavfilter     6.107.100 /  6.107.100
  libavresample   3.  7.  0 /  3.  7.  0
  libswscale      4.  8.100 /  4.  8.100
  libswresample   2.  9.100 /  2.  9.100
  libpostproc    54.  7.100 / 54.  7.100
Guessed Channel Layout for Input Stream #0.0 : mono
Input #0, wav, from '/media/kaldinew/data2/large-farsdat/CD4/008/Fixed/008F09.wav':
  Duration: 00:02:16.74, bitrate: 352 kb/s
    Stream #0:0: Audio: pcm_s16le ([1][0][0][0] / 0x0001), 22050 Hz, mono, s16, 352 kb/s
Stream mapping:
  Stream #0:0 -> #0:0 (pcm_s16le (native) -> pcm_s16le (native))
Press [q] to stop, [?] for help
Output #0, wav, to 'pipe:':
  Metadata:
    ISFT            : Lavf57.83.100
    Stream #0:0: Audio: pcm_s16le ([1][0][0][0] / 0x0001), 8000 Hz, mono, s16, 128 kb/s
    Metadata:
VLOG[1] (compute-mfcc-feats[5.5.931~1-aecd]:Read():wave-reader.cc:249) Read in RIFF chunk size: 4294967295, data chunk size: 4294967295. Assume 'stream mode' (reading data to EOF).
      encoder         : Lavc57.107.100 pcm_s16le
size=     142kB time=00:00:09.10 bitrate= 128.1kbits/s speed=15.4x    size=     560kB time=00:00:35.84 bitrate= 128.0kbits/s speed=30.8x    size=     932kB time=00:00:59.62 bitrate= 128.0kbits/s speed=33.8x    size=    1814kB time=00:01:56.09 bitrate= 128.0kbits/s speed=47.2x    size=    1875kB time=00:02:00.00 bitrate= 128.0kbits/s speed=48.8x    
video:0kB audio:1875kB subtitle:0kB other streams:0kB global headers:0kB muxing overhead: 0.004062%
VLOG[2] (compute-mfcc-feats[5.5.931~1-aecd]:main():compute-mfcc-feats.cc:182) Processed features for key utt-008F09
ffmpeg version 3.4.8-0ubuntu0.2 Copyright (c) 2000-2020 the FFmpeg developers
  built with gcc 7 (Ubuntu 7.5.0-3ubuntu1~18.04)
  configuration: --prefix=/usr --extra-version=0ubuntu0.2 --toolchain=hardened --libdir=/usr/lib/x86_64-linux-gnu --incdir=/usr/include/x86_64-linux-gnu --enable-gpl --disable-stripping --enable-avresample --enable-avisynth --enable-gnutls --enable-ladspa --enable-libass --enable-libbluray --enable-libbs2b --enable-libcaca --enable-libcdio --enable-libflite --enable-libfontconfig --enable-libfreetype --enable-libfribidi --enable-libgme --enable-libgsm --enable-libmp3lame --enable-libmysofa --enable-libopenjpeg --enable-libopenmpt --enable-libopus --enable-libpulse --enable-librubberband --enable-librsvg --enable-libshine --enable-libsnappy --enable-libsoxr --enable-libspeex --enable-libssh --enable-libtheora --enable-libtwolame --enable-libvorbis --enable-libvpx --enable-libwavpack --enable-libwebp --enable-libx265 --enable-libxml2 --enable-libxvid --enable-libzmq --enable-libzvbi --enable-omx --enable-openal --enable-opengl --enable-sdl2 --enable-libdc1394 --enable-libdrm --enable-libiec61883 --enable-chromaprint --enable-frei0r --enable-libopencv --enable-libx264 --enable-shared
  libavutil      55. 78.100 / 55. 78.100
  libavcodec     57.107.100 / 57.107.100
  libavformat    57. 83.100 / 57. 83.100
  libavdevice    57. 10.100 / 57. 10.100
  libavfilter     6.107.100 /  6.107.100
  libavresample   3.  7.  0 /  3.  7.  0
  libswscale      4.  8.100 /  4.  8.100
  libswresample   2.  9.100 /  2.  9.100
  libpostproc    54.  7.100 / 54.  7.100
Guessed Channel Layout for Input Stream #0.0 : mono
Input #0, wav, from '/media/kaldinew/data2/large-farsdat/CD4/008/Fixed/008F10.wav':
  Duration: 00:01:55.47, bitrate: 352 kb/s
    Stream #0:0: Audio: pcm_s16le ([1][0][0][0] / 0x0001), 22050 Hz, mono, s16, 352 kb/s
Stream mapping:
  Stream #0:0 -> #0:0 (pcm_s16le (native) -> pcm_s16le (native))
Press [q] to stop, [?] for help
Output #0, wav, to 'pipe:':
  Metadata:
    ISFT            : Lavf57.83.100
    Stream #0:0: Audio: pcm_s16le ([1][0][0][0] / 0x0001), 8000 Hz, mono, s16, 128 kb/s
VLOG[1] (compute-mfcc-feats[5.5.931~1-aecd]:Read():wave-reader.cc:249) Read in RIFF chunk size: 4294967295, data chunk size: 4294967295. Assume 'stream mode' (reading data to EOF).
    Metadata:
      encoder         : Lavc57.107.100 pcm_s16le
size=     107kB time=00:00:06.87 bitrate= 128.1kbits/s speed=8.19x    size=     525kB time=00:00:33.62 bitrate= 128.0kbits/s speed=20.9x    size=     943kB time=00:01:00.36 bitrate= 128.0kbits/s speed=27.3x    size=    1408kB time=00:01:30.09 bitrate= 128.0kbits/s speed=31.9x    size=    1804kB time=00:01:55.46 bitrate= 128.0kbits/s speed=40.7x    
video:0kB audio:1804kB subtitle:0kB other streams:0kB global headers:0kB muxing overhead: 0.004222%
VLOG[2] (compute-mfcc-feats[5.5.931~1-aecd]:main():compute-mfcc-feats.cc:182) Processed features for key utt-008F10
ffmpeg version 3.4.8-0ubuntu0.2 Copyright (c) 2000-2020 the FFmpeg developers
  built with gcc 7 (Ubuntu 7.5.0-3ubuntu1~18.04)
  configuration: --prefix=/usr --extra-version=0ubuntu0.2 --toolchain=hardened --libdir=/usr/lib/x86_64-linux-gnu --incdir=/usr/include/x86_64-linux-gnu --enable-gpl --disable-stripping --enable-avresample --enable-avisynth --enable-gnutls --enable-ladspa --enable-libass --enable-libbluray --enable-libbs2b --enable-libcaca --enable-libcdio --enable-libflite --enable-libfontconfig --enable-libfreetype --enable-libfribidi --enable-libgme --enable-libgsm --enable-libmp3lame --enable-libmysofa --enable-libopenjpeg --enable-libopenmpt --enable-libopus --enable-libpulse --enable-librubberband --enable-librsvg --enable-libshine --enable-libsnappy --enable-libsoxr --enable-libspeex --enable-libssh --enable-libtheora --enable-libtwolame --enable-libvorbis --enable-libvpx --enable-libwavpack --enable-libwebp --enable-libx265 --enable-libxml2 --enable-libxvid --enable-libzmq --enable-libzvbi --enable-omx --enable-openal --enable-opengl --enable-sdl2 --enable-libdc1394 --enable-libdrm --enable-libiec61883 --enable-chromaprint --enable-frei0r --enable-libopencv --enable-libx264 --enable-shared
  libavutil      55. 78.100 / 55. 78.100
  libavcodec     57.107.100 / 57.107.100
  libavformat    57. 83.100 / 57. 83.100
  libavdevice    57. 10.100 / 57. 10.100
  libavfilter     6.107.100 /  6.107.100
  libavresample   3.  7.  0 /  3.  7.  0
  libswscale      4.  8.100 /  4.  8.100
  libswresample   2.  9.100 /  2.  9.100
  libpostproc    54.  7.100 / 54.  7.100
Guessed Channel Layout for Input Stream #0.0 : mono
Input #0, wav, from '/media/kaldinew/data2/large-farsdat/CD5/009/Fixed/009F01.wav':
  Duration: 00:02:14.26, bitrate: 352 kb/s
    Stream #0:0: Audio: pcm_s16le ([1][0][0][0] / 0x0001), 22050 Hz, mono, s16, 352 kb/s
Stream mapping:
  Stream #0:0 -> #0:0 (pcm_s16le (native) -> pcm_s16le (native))
Press [q] to stop, [?] for help
Output #0, wav, to 'pipe:':
  Metadata:
    ISFT            : Lavf57.83.100
    Stream #0:0: Audio: pcm_s16le ([1][0][0][0] / 0x0001), 8000 Hz, mono, s16, 128 kb/s
    Metadata:
      encoder         : Lavc57.107.100 pcm_s16le
VLOG[1] (compute-mfcc-feats[5.5.931~1-aecd]:Read():wave-reader.cc:249) Read in RIFF chunk size: 4294967295, data chunk size: 4294967295. Assume 'stream mode' (reading data to EOF).
size=     943kB time=00:01:00.36 bitrate= 128.0kbits/s speed=83.8x    size=    1292kB time=00:01:22.66 bitrate= 128.0kbits/s speed=64.9x    size=    1710kB time=00:01:49.41 bitrate= 128.0kbits/s speed=50.2x    size=    1875kB time=00:02:00.00 bitrate= 128.0kbits/s speed=54.8x    
video:0kB audio:1875kB subtitle:0kB other streams:0kB global headers:0kB muxing overhead: 0.004062%
VLOG[2] (compute-mfcc-feats[5.5.931~1-aecd]:main():compute-mfcc-feats.cc:182) Processed features for key utt-009F01
ffmpeg version 3.4.8-0ubuntu0.2 Copyright (c) 2000-2020 the FFmpeg developers
  built with gcc 7 (Ubuntu 7.5.0-3ubuntu1~18.04)
  configuration: --prefix=/usr --extra-version=0ubuntu0.2 --toolchain=hardened --libdir=/usr/lib/x86_64-linux-gnu --incdir=/usr/include/x86_64-linux-gnu --enable-gpl --disable-stripping --enable-avresample --enable-avisynth --enable-gnutls --enable-ladspa --enable-libass --enable-libbluray --enable-libbs2b --enable-libcaca --enable-libcdio --enable-libflite --enable-libfontconfig --enable-libfreetype --enable-libfribidi --enable-libgme --enable-libgsm --enable-libmp3lame --enable-libmysofa --enable-libopenjpeg --enable-libopenmpt --enable-libopus --enable-libpulse --enable-librubberband --enable-librsvg --enable-libshine --enable-libsnappy --enable-libsoxr --enable-libspeex --enable-libssh --enable-libtheora --enable-libtwolame --enable-libvorbis --enable-libvpx --enable-libwavpack --enable-libwebp --enable-libx265 --enable-libxml2 --enable-libxvid --enable-libzmq --enable-libzvbi --enable-omx --enable-openal --enable-opengl --enable-sdl2 --enable-libdc1394 --enable-libdrm --enable-libiec61883 --enable-chromaprint --enable-frei0r --enable-libopencv --enable-libx264 --enable-shared
  libavutil      55. 78.100 / 55. 78.100
  libavcodec     57.107.100 / 57.107.100
  libavformat    57. 83.100 / 57. 83.100
  libavdevice    57. 10.100 / 57. 10.100
  libavfilter     6.107.100 /  6.107.100
  libavresample   3.  7.  0 /  3.  7.  0
  libswscale      4.  8.100 /  4.  8.100
  libswresample   2.  9.100 /  2.  9.100
  libpostproc    54.  7.100 / 54.  7.100
Guessed Channel Layout for Input Stream #0.0 : mono
Input #0, wav, from '/media/kaldinew/data2/large-farsdat/CD5/009/Fixed/009F02.wav':
  Duration: 00:02:13.71, bitrate: 352 kb/s
    Stream #0:0: Audio: pcm_s16le ([1][0][0][0] / 0x0001), 22050 Hz, mono, s16, 352 kb/s
Stream mapping:
  Stream #0:0 -> #0:0 (pcm_s16le (native) -> pcm_s16le (native))
Press [q] to stop, [?] for help
Output #0, wav, to 'pipe:':
  Metadata:
    ISFT            : Lavf57.83.100
VLOG[1] (compute-mfcc-feats[5.5.931~1-aecd]:Read():wave-reader.cc:249) Read in RIFF chunk size: 4294967295, data chunk size: 4294967295. Assume 'stream mode' (reading data to EOF).
    Stream #0:0: Audio: pcm_s16le ([1][0][0][0] / 0x0001), 8000 Hz, mono, s16, 128 kb/s
    Metadata:
      encoder         : Lavc57.107.100 pcm_s16le
size=     107kB time=00:00:06.87 bitrate= 128.1kbits/s speed= 8.3x    size=     572kB time=00:00:36.59 bitrate= 128.0kbits/s speed=25.7x    size=    1036kB time=00:01:06.31 bitrate= 128.0kbits/s speed=28.9x    size=    1501kB time=00:01:36.03 bitrate= 128.0kbits/s speed=  32x    size=    1875kB time=00:02:00.00 bitrate= 128.0kbits/s speed=39.8x    
video:0kB audio:1875kB subtitle:0kB other streams:0kB global headers:0kB muxing overhead: 0.004062%
VLOG[2] (compute-mfcc-feats[5.5.931~1-aecd]:main():compute-mfcc-feats.cc:182) Processed features for key utt-009F02
ffmpeg version 3.4.8-0ubuntu0.2 Copyright (c) 2000-2020 the FFmpeg developers
  built with gcc 7 (Ubuntu 7.5.0-3ubuntu1~18.04)
  configuration: --prefix=/usr --extra-version=0ubuntu0.2 --toolchain=hardened --libdir=/usr/lib/x86_64-linux-gnu --incdir=/usr/include/x86_64-linux-gnu --enable-gpl --disable-stripping --enable-avresample --enable-avisynth --enable-gnutls --enable-ladspa --enable-libass --enable-libbluray --enable-libbs2b --enable-libcaca --enable-libcdio --enable-libflite --enable-libfontconfig --enable-libfreetype --enable-libfribidi --enable-libgme --enable-libgsm --enable-libmp3lame --enable-libmysofa --enable-libopenjpeg --enable-libopenmpt --enable-libopus --enable-libpulse --enable-librubberband --enable-librsvg --enable-libshine --enable-libsnappy --enable-libsoxr --enable-libspeex --enable-libssh --enable-libtheora --enable-libtwolame --enable-libvorbis --enable-libvpx --enable-libwavpack --enable-libwebp --enable-libx265 --enable-libxml2 --enable-libxvid --enable-libzmq --enable-libzvbi --enable-omx --enable-openal --enable-opengl --enable-sdl2 --enable-libdc1394 --enable-libdrm --enable-libiec61883 --enable-chromaprint --enable-frei0r --enable-libopencv --enable-libx264 --enable-shared
  libavutil      55. 78.100 / 55. 78.100
  libavcodec     57.107.100 / 57.107.100
  libavformat    57. 83.100 / 57. 83.100
  libavdevice    57. 10.100 / 57. 10.100
  libavfilter     6.107.100 /  6.107.100
  libavresample   3.  7.  0 /  3.  7.  0
  libswscale      4.  8.100 /  4.  8.100
  libswresample   2.  9.100 /  2.  9.100
  libpostproc    54.  7.100 / 54.  7.100
Guessed Channel Layout for Input Stream #0.0 : mono
Input #0, wav, from '/media/kaldinew/data2/large-farsdat/CD5/009/Fixed/009F03.wav':
  Duration: 00:02:33.66, bitrate: 352 kb/s
    Stream #0:0: Audio: pcm_s16le ([1][0][0][0] / 0x0001), 22050 Hz, mono, s16, 352 kb/s
Stream mapping:
  Stream #0:0 -> #0:0 (pcm_s16le (native) -> pcm_s16le (native))
Press [q] to stop, [?] for help
Output #0, wav, to 'pipe:':
  Metadata:
    ISFT            : Lavf57.83.100
    Stream #0:0VLOG[1] (compute-mfcc-feats[5.5.931~1-aecd]:Read():wave-reader.cc:249) Read in RIFF chunk size: 4294967295, data chunk size: 4294967295. Assume 'stream mode' (reading data to EOF).
: Audio: pcm_s16le ([1][0][0][0] / 0x0001), 8000 Hz, mono, s16, 128 kb/s
    Metadata:
      encoder         : Lavc57.107.100 pcm_s16le
size=     107kB time=00:00:06.87 bitrate= 128.1kbits/s speed= 4.7x    size=     479kB time=00:00:30.64 bitrate= 128.0kbits/s speed=12.8x    size=     850kB time=00:00:54.42 bitrate= 128.0kbits/s speed=17.7x    size=    1733kB time=00:01:50.89 bitrate= 128.0kbits/s speed=26.5x    size=    1875kB time=00:02:00.00 bitrate= 128.0kbits/s speed=28.6x    
video:0kB audio:1875kB subtitle:0kB other streams:0kB global headers:0kB muxing overhead: 0.004062%
VLOG[2] (compute-mfcc-feats[5.5.931~1-aecd]:main():compute-mfcc-feats.cc:182) Processed features for key utt-009F03
ffmpeg version 3.4.8-0ubuntu0.2 Copyright (c) 2000-2020 the FFmpeg developers
  built with gcc 7 (Ubuntu 7.5.0-3ubuntu1~18.04)
  configuration: --prefix=/usr --extra-version=0ubuntu0.2 --toolchain=hardened --libdir=/usr/lib/x86_64-linux-gnu --incdir=/usr/include/x86_64-linux-gnu --enable-gpl --disable-stripping --enable-avresample --enable-avisynth --enable-gnutls --enable-ladspa --enable-libass --enable-libbluray --enable-libbs2b --enable-libcaca --enable-libcdio --enable-libflite --enable-libfontconfig --enable-libfreetype --enable-libfribidi --enable-libgme --enable-libgsm --enable-libmp3lame --enable-libmysofa --enable-libopenjpeg --enable-libopenmpt --enable-libopus --enable-libpulse --enable-librubberband --enable-librsvg --enable-libshine --enable-libsnappy --enable-libsoxr --enable-libspeex --enable-libssh --enable-libtheora --enable-libtwolame --enable-libvorbis --enable-libvpx --enable-libwavpack --enable-libwebp --enable-libx265 --enable-libxml2 --enable-libxvid --enable-libzmq --enable-libzvbi --enable-omx --enable-openal --enable-opengl --enable-sdl2 --enable-libdc1394 --enable-libdrm --enable-libiec61883 --enable-chromaprint --enable-frei0r --enable-libopencv --enable-libx264 --enable-shared
  libavutil      55. 78.100 / 55. 78.100
  libavcodec     57.107.100 / 57.107.100
  libavformat    57. 83.100 / 57. 83.100
  libavdevice    57. 10.100 / 57. 10.100
  libavfilter     6.107.100 /  6.107.100
  libavresample   3.  7.  0 /  3.  7.  0
  libswscale      4.  8.100 /  4.  8.100
  libswresample   2.  9.100 /  2.  9.100
  libpostproc    54.  7.100 / 54.  7.100
Guessed Channel Layout for Input Stream #0.0 : mono
Input #0, wav, from '/media/kaldinew/data2/large-farsdat/CD5/009/Fixed/009F04.wav':
  Duration: 00:02:09.71, bitrate: 352 kb/s
    Stream #0:0: Audio: pcm_s16le ([1][0][0][0] / 0x0001), 22050 Hz, mono, s16, 352 kb/s
Stream mapping:
  Stream #0:0 -> #0:0 (pcm_s16le (native) -> pcm_s16le (native))
Press [q] to stop, [?] for help
Output #0, wav, to 'pipe:':
  Metadata:
    ISFT            : Lavf57.83.100
VLOG[1] (compute-mfcc-feats[5.5.931~1-aecd]:Read():wave-reader.cc:249) Read in RIFF chunk size: 4294967295, data chunk size: 4294967295. Assume 'stream mode' (reading data to EOF).
    Stream #0:0: Audio: pcm_s16le ([1][0][0][0] / 0x0001), 8000 Hz, mono, s16, 128 kb/s
    Metadata:
      encoder         : Lavc57.107.100 pcm_s16le
size=     107kB time=00:00:06.87 bitrate= 128.1kbits/s speed=10.7x    size=     711kB time=00:00:45.50 bitrate= 128.0kbits/s speed=37.7x    size=     804kB time=00:00:51.45 bitrate= 128.0kbits/s speed=26.4x    size=    1631kB time=00:01:44.39 bitrate= 128.0kbits/s speed=42.6x    size=    1686kB time=00:01:47.92 bitrate= 128.0kbits/s speed=34.4x    size=    1875kB time=00:02:00.00 bitrate= 128.0kbits/s speed=38.2x    
video:0kB audio:1875kB subtitle:0kB other streams:0kB global headers:0kB muxing overhead: 0.004062%
VLOG[2] (compute-mfcc-feats[5.5.931~1-aecd]:main():compute-mfcc-feats.cc:182) Processed features for key utt-009F04
ffmpeg version 3.4.8-0ubuntu0.2 Copyright (c) 2000-2020 the FFmpeg developers
  built with gcc 7 (Ubuntu 7.5.0-3ubuntu1~18.04)
  configuration: --prefix=/usr --extra-version=0ubuntu0.2 --toolchain=hardened --libdir=/usr/lib/x86_64-linux-gnu --incdir=/usr/include/x86_64-linux-gnu --enable-gpl --disable-stripping --enable-avresample --enable-avisynth --enable-gnutls --enable-ladspa --enable-libass --enable-libbluray --enable-libbs2b --enable-libcaca --enable-libcdio --enable-libflite --enable-libfontconfig --enable-libfreetype --enable-libfribidi --enable-libgme --enable-libgsm --enable-libmp3lame --enable-libmysofa --enable-libopenjpeg --enable-libopenmpt --enable-libopus --enable-libpulse --enable-librubberband --enable-librsvg --enable-libshine --enable-libsnappy --enable-libsoxr --enable-libspeex --enable-libssh --enable-libtheora --enable-libtwolame --enable-libvorbis --enable-libvpx --enable-libwavpack --enable-libwebp --enable-libx265 --enable-libxml2 --enable-libxvid --enable-libzmq --enable-libzvbi --enable-omx --enable-openal --enable-opengl --enable-sdl2 --enable-libdc1394 --enable-libdrm --enable-libiec61883 --enable-chromaprint --enable-frei0r --enable-libopencv --enable-libx264 --enable-shared
  libavutil      55. 78.100 / 55. 78.100
  libavcodec     57.107.100 / 57.107.100
  libavformat    57. 83.100 / 57. 83.100
  libavdevice    57. 10.100 / 57. 10.100
  libavfilter     6.107.100 /  6.107.100
  libavresample   3.  7.  0 /  3.  7.  0
  libswscale      4.  8.100 /  4.  8.100
  libswresample   2.  9.100 /  2.  9.100
  libpostproc    54.  7.100 / 54.  7.100
Guessed Channel Layout for Input Stream #0.0 : mono
Input #0, wav, from '/media/kaldinew/data2/large-farsdat/CD5/009/Fixed/009F05.wav':
  Duration: 00:02:26.54, bitrate: 352 kb/s
    Stream #0:0: Audio: pcm_s16le ([1][0][0][0] / 0x0001), 22050 Hz, mono, s16, 352 kb/s
Stream mapping:
  Stream #0:0 -> #0:0 (pcm_s16le (native) -> pcm_s16le (native))
Press [q] to stop, [?] for help
Output #0, wav, to 'pipe:':
  Metadata:
    ISFT            : Lavf57.83.100
VLOG[1] (compute-mfcc-feats[5.5.931~1-aecd]:Read():wave-reader.cc:249) Read in RIFF chunk size: 4294967295, data chunk size: 4294967295. Assume 'stream mode' (reading data to EOF).
    Stream #0:0: Audio: pcm_s16le ([1][0][0][0] / 0x0001), 8000 Hz, mono, s16, 128 kb/s
    Metadata:
      encoder         : Lavc57.107.100 pcm_s16le
size=     107kB time=00:00:06.87 bitrate= 128.1kbits/s speed=10.8x    size=     433kB time=00:00:27.67 bitrate= 128.0kbits/s speed=18.5x    size=     850kB time=00:00:54.42 bitrate= 128.0kbits/s speed=26.3x    size=    1268kB time=00:01:21.17 bitrate= 128.0kbits/s speed=  25x    size=    1547kB time=00:01:39.00 bitrate= 128.0kbits/s speed=25.2x    size=    1875kB time=00:02:00.00 bitrate= 128.0kbits/s speed=30.5x    
video:0kB audio:1875kB subtitle:0kB other streams:0kB global headers:0kB muxing overhead: 0.004062%
LOG (compute-mfcc-feats[5.5.931~1-aecd]:main():compute-mfcc-feats.cc:181) Processed 10 utterances
VLOG[2] (compute-mfcc-feats[5.5.931~1-aecd]:main():compute-mfcc-feats.cc:182) Processed features for key utt-009F05
ffmpeg version 3.4.8-0ubuntu0.2 Copyright (c) 2000-2020 the FFmpeg developers
  built with gcc 7 (Ubuntu 7.5.0-3ubuntu1~18.04)
  configuration: --prefix=/usr --extra-version=0ubuntu0.2 --toolchain=hardened --libdir=/usr/lib/x86_64-linux-gnu --incdir=/usr/include/x86_64-linux-gnu --enable-gpl --disable-stripping --enable-avresample --enable-avisynth --enable-gnutls --enable-ladspa --enable-libass --enable-libbluray --enable-libbs2b --enable-libcaca --enable-libcdio --enable-libflite --enable-libfontconfig --enable-libfreetype --enable-libfribidi --enable-libgme --enable-libgsm --enable-libmp3lame --enable-libmysofa --enable-libopenjpeg --enable-libopenmpt --enable-libopus --enable-libpulse --enable-librubberband --enable-librsvg --enable-libshine --enable-libsnappy --enable-libsoxr --enable-libspeex --enable-libssh --enable-libtheora --enable-libtwolame --enable-libvorbis --enable-libvpx --enable-libwavpack --enable-libwebp --enable-libx265 --enable-libxml2 --enable-libxvid --enable-libzmq --enable-libzvbi --enable-omx --enable-openal --enable-opengl --enable-sdl2 --enable-libdc1394 --enable-libdrm --enable-libiec61883 --enable-chromaprint --enable-frei0r --enable-libopencv --enable-libx264 --enable-shared
  libavutil      55. 78.100 / 55. 78.100
  libavcodec     57.107.100 / 57.107.100
  libavformat    57. 83.100 / 57. 83.100
  libavdevice    57. 10.100 / 57. 10.100
  libavfilter     6.107.100 /  6.107.100
  libavresample   3.  7.  0 /  3.  7.  0
  libswscale      4.  8.100 /  4.  8.100
  libswresample   2.  9.100 /  2.  9.100
  libpostproc    54.  7.100 / 54.  7.100
Guessed Channel Layout for Input Stream #0.0 : mono
Input #0, wav, from '/media/kaldinew/data2/large-farsdat/CD5/009/Fixed/009F06.wav':
  Duration: 00:02:15.71, bitrate: 352 kb/s
    Stream #0:0: Audio: pcm_s16le ([1][0][0][0] / 0x0001), 22050 Hz, mono, s16, 352 kb/s
Stream mapping:
  Stream #0:0 -> #0:0 (pcm_s16le (native) -> pcm_s16le (native))
Press [q] to stop, [?] for help
Output #0, wav, to 'pipe:':
  Metadata:
    ISFT            : Lavf57.83.100
    Stream #0:0: Audio: pcm_s16le ([1][0][0][0] / 0x0001), 8000 Hz, mono, s16, 128 kb/s
    Metadata:
      encoder         : VLOG[1] (compute-mfcc-feats[5.5.931~1-aecd]:Read():wave-reader.cc:249) Read in RIFF chunk size: 4294967295, data chunk size: 4294967295. Assume 'stream mode' (reading data to EOF).
Lavc57.107.100 pcm_s16le
size=     107kB time=00:00:06.87 bitrate= 128.1kbits/s speed=4.85x    size=     525kB time=00:00:33.62 bitrate= 128.0kbits/s speed=15.6x    size=     990kB time=00:01:03.34 bitrate= 128.0kbits/s speed=22.5x    size=    1454kB time=00:01:33.06 bitrate= 128.0kbits/s speed=22.8x    size=    1875kB time=00:02:00.00 bitrate= 128.0kbits/s speed=29.2x    
video:0kB audio:1875kB subtitle:0kB other streams:0kB global headers:0kB muxing overhead: 0.004062%
VLOG[2] (compute-mfcc-feats[5.5.931~1-aecd]:main():compute-mfcc-feats.cc:182) Processed features for key utt-009F06
ffmpeg version 3.4.8-0ubuntu0.2 Copyright (c) 2000-2020 the FFmpeg developers
  built with gcc 7 (Ubuntu 7.5.0-3ubuntu1~18.04)
  configuration: --prefix=/usr --extra-version=0ubuntu0.2 --toolchain=hardened --libdir=/usr/lib/x86_64-linux-gnu --incdir=/usr/include/x86_64-linux-gnu --enable-gpl --disable-stripping --enable-avresample --enable-avisynth --enable-gnutls --enable-ladspa --enable-libass --enable-libbluray --enable-libbs2b --enable-libcaca --enable-libcdio --enable-libflite --enable-libfontconfig --enable-libfreetype --enable-libfribidi --enable-libgme --enable-libgsm --enable-libmp3lame --enable-libmysofa --enable-libopenjpeg --enable-libopenmpt --enable-libopus --enable-libpulse --enable-librubberband --enable-librsvg --enable-libshine --enable-libsnappy --enable-libsoxr --enable-libspeex --enable-libssh --enable-libtheora --enable-libtwolame --enable-libvorbis --enable-libvpx --enable-libwavpack --enable-libwebp --enable-libx265 --enable-libxml2 --enable-libxvid --enable-libzmq --enable-libzvbi --enable-omx --enable-openal --enable-opengl --enable-sdl2 --enable-libdc1394 --enable-libdrm --enable-libiec61883 --enable-chromaprint --enable-frei0r --enable-libopencv --enable-libx264 --enable-shared
  libavutil      55. 78.100 / 55. 78.100
  libavcodec     57.107.100 / 57.107.100
  libavformat    57. 83.100 / 57. 83.100
  libavdevice    57. 10.100 / 57. 10.100
  libavfilter     6.107.100 /  6.107.100
  libavresample   3.  7.  0 /  3.  7.  0
  libswscale      4.  8.100 /  4.  8.100
  libswresample   2.  9.100 /  2.  9.100
  libpostproc    54.  7.100 / 54.  7.100
Guessed Channel Layout for Input Stream #0.0 : mono
Input #0, wav, from '/media/kaldinew/data2/large-farsdat/CD5/009/Fixed/009F07.wav':
  Duration: 00:02:53.22, bitrate: 352 kb/s
    Stream #0:0: Audio: pcm_s16le ([1][0][0][0] / 0x0001), 22050 Hz, mono, s16, 352 kb/s
Stream mapping:
  Stream #0:0 -> #0:0 (pcm_s16le (native) -> pcm_s16le (native))
Press [q] to stop, [?] for help
Output #0, wav, to 'pipe:':
  Metadata:
    ISFT            : Lavf57.83.100
VLOG[1] (compute-mfcc-feats[5.5.931~1-aecd]:Read():wave-reader.cc:249) Read in RIFF chunk size: 4294967295, data chunk size: 4294967295. Assume 'stream mode' (reading data to EOF).
    Stream #0:0: Audio: pcm_s16le ([1][0][0][0] / 0x0001), 8000 Hz, mono, s16, 128 kb/s
    Metadata:
      encoder         : Lavc57.107.100 pcm_s16le
size=     107kB time=00:00:06.87 bitrate= 128.1kbits/s speed= 8.9x    size=     572kB time=00:00:36.59 bitrate= 128.0kbits/s speed=22.5x    size=    1036kB time=00:01:06.31 bitrate= 128.0kbits/s speed=28.1x    size=    1501kB time=00:01:36.03 bitrate= 128.0kbits/s speed=29.9x    size=    1875kB time=00:02:00.00 bitrate= 128.0kbits/s speed=37.2x    
video:0kB audio:1875kB subtitle:0kB other streams:0kB global headers:0kB muxing overhead: 0.004062%
VLOG[2] (compute-mfcc-feats[5.5.931~1-aecd]:main():compute-mfcc-feats.cc:182) Processed features for key utt-009F07
ffmpeg version 3.4.8-0ubuntu0.2 Copyright (c) 2000-2020 the FFmpeg developers
  built with gcc 7 (Ubuntu 7.5.0-3ubuntu1~18.04)
  configuration: --prefix=/usr --extra-version=0ubuntu0.2 --toolchain=hardened --libdir=/usr/lib/x86_64-linux-gnu --incdir=/usr/include/x86_64-linux-gnu --enable-gpl --disable-stripping --enable-avresample --enable-avisynth --enable-gnutls --enable-ladspa --enable-libass --enable-libbluray --enable-libbs2b --enable-libcaca --enable-libcdio --enable-libflite --enable-libfontconfig --enable-libfreetype --enable-libfribidi --enable-libgme --enable-libgsm --enable-libmp3lame --enable-libmysofa --enable-libopenjpeg --enable-libopenmpt --enable-libopus --enable-libpulse --enable-librubberband --enable-librsvg --enable-libshine --enable-libsnappy --enable-libsoxr --enable-libspeex --enable-libssh --enable-libtheora --enable-libtwolame --enable-libvorbis --enable-libvpx --enable-libwavpack --enable-libwebp --enable-libx265 --enable-libxml2 --enable-libxvid --enable-libzmq --enable-libzvbi --enable-omx --enable-openal --enable-opengl --enable-sdl2 --enable-libdc1394 --enable-libdrm --enable-libiec61883 --enable-chromaprint --enable-frei0r --enable-libopencv --enable-libx264 --enable-shared
  libavutil      55. 78.100 / 55. 78.100
  libavcodec     57.107.100 / 57.107.100
  libavformat    57. 83.100 / 57. 83.100
  libavdevice    57. 10.100 / 57. 10.100
  libavfilter     6.107.100 /  6.107.100
  libavresample   3.  7.  0 /  3.  7.  0
  libswscale      4.  8.100 /  4.  8.100
  libswresample   2.  9.100 /  2.  9.100
  libpostproc    54.  7.100 / 54.  7.100
Guessed Channel Layout for Input Stream #0.0 : mono
Input #0, wav, from '/media/kaldinew/data2/large-farsdat/CD5/009/Fixed/009F08.wav':
  Duration: 00:02:08.52, bitrate: 352 kb/s
    Stream #0:0: Audio: pcm_s16le ([1][0][0][0] / 0x0001), 22050 Hz, mono, s16, 352 kb/s
Stream mapping:
  Stream #0:0 -> #0:0 (pcm_s16le (native) -> pcm_s16le (native))
Press [q] to stop, [?] for help
Output #0, wav, to 'pipe:':
  Metadata:
    ISFT            : Lavf57.83.100
VLOG[1] (compute-mfcc-feats[5.5.931~1-aecd]:Read():wave-reader.cc:249) Read in RIFF chunk size: 4294967295, data chunk size: 4294967295. Assume 'stream mode' (reading data to EOF).
    Stream #0:0: Audio: pcm_s16le ([1][0][0][0] / 0x0001), 8000 Hz, mono, s16, 128 kb/s
    Metadata:
      encoder         : Lavc57.107.100 pcm_s16le
size=     107kB time=00:00:06.87 bitrate= 128.1kbits/s speed=11.3x    size=     572kB time=00:00:36.59 bitrate= 128.0kbits/s speed=17.1x    size=    1083kB time=00:01:09.28 bitrate= 128.0kbits/s speed=14.2x    size=    1361kB time=00:01:27.11 bitrate= 128.0kbits/s speed=11.2x    size=    1826kB time=00:01:56.84 bitrate= 128.0kbits/s speed=11.1x    size=    1875kB time=00:02:00.00 bitrate= 128.0kbits/s speed=11.4x    
video:0kB audio:1875kB subtitle:0kB other streams:0kB global headers:0kB muxing overhead: 0.004062%
VLOG[2] (compute-mfcc-feats[5.5.931~1-aecd]:main():compute-mfcc-feats.cc:182) Processed features for key utt-009F08
ffmpeg version 3.4.8-0ubuntu0.2 Copyright (c) 2000-2020 the FFmpeg developers
  built with gcc 7 (Ubuntu 7.5.0-3ubuntu1~18.04)
  configuration: --prefix=/usr --extra-version=0ubuntu0.2 --toolchain=hardened --libdir=/usr/lib/x86_64-linux-gnu --incdir=/usr/include/x86_64-linux-gnu --enable-gpl --disable-stripping --enable-avresample --enable-avisynth --enable-gnutls --enable-ladspa --enable-libass --enable-libbluray --enable-libbs2b --enable-libcaca --enable-libcdio --enable-libflite --enable-libfontconfig --enable-libfreetype --enable-libfribidi --enable-libgme --enable-libgsm --enable-libmp3lame --enable-libmysofa --enable-libopenjpeg --enable-libopenmpt --enable-libopus --enable-libpulse --enable-librubberband --enable-librsvg --enable-libshine --enable-libsnappy --enable-libsoxr --enable-libspeex --enable-libssh --enable-libtheora --enable-libtwolame --enable-libvorbis --enable-libvpx --enable-libwavpack --enable-libwebp --enable-libx265 --enable-libxml2 --enable-libxvid --enable-libzmq --enable-libzvbi --enable-omx --enable-openal --enable-opengl --enable-sdl2 --enable-libdc1394 --enable-libdrm --enable-libiec61883 --enable-chromaprint --enable-frei0r --enable-libopencv --enable-libx264 --enable-shared
  libavutil      55. 78.100 / 55. 78.100
  libavcodec     57.107.100 / 57.107.100
  libavformat    57. 83.100 / 57. 83.100
  libavdevice    57. 10.100 / 57. 10.100
  libavfilter     6.107.100 /  6.107.100
  libavresample   3.  7.  0 /  3.  7.  0
  libswscale      4.  8.100 /  4.  8.100
  libswresample   2.  9.100 /  2.  9.100
  libpostproc    54.  7.100 / 54.  7.100
Guessed Channel Layout for Input Stream #0.0 : mono
Input #0, wav, from '/media/kaldinew/data2/large-farsdat/CD5/009/Fixed/009F09.wav':
  Duration: 00:02:12.61, bitrate: 352 kb/s
    Stream #0:0: Audio: pcm_s16le ([1][0][0][0] / 0x0001), 22050 Hz, mono, s16, 352 kb/s
Stream mapping:
  Stream #0:0 -> #0:0 (pcm_s16le (native) -> pcm_s16le (native))
Press [q] to stop, [?] for help
Output #0, wav, to 'pipe:':
  Metadata:
    ISFT            : Lavf57.83.100
    Stream #0:0: Audio: pcm_s16le ([1][0][0][0] / 0x0001), 8000 Hz, mono, s16, 128 kb/s
VLOG[1] (compute-mfcc-feats[5.5.931~1-aecd]:Read():wave-reader.cc:249) Read in RIFF chunk size: 4294967295, data chunk size: 4294967295. Assume 'stream mode' (reading data to EOF).
    Metadata:
      encoder         : Lavc57.107.100 pcm_s16le
size=     107kB time=00:00:06.87 bitrate= 128.1kbits/s speed=2.88x    size=     641kB time=00:00:41.05 bitrate= 128.0kbits/s speed=8.07x    size=    1875kB time=00:02:00.00 bitrate= 128.0kbits/s speed=23.3x    
video:0kB audio:1875kB subtitle:0kB other streams:0kB global headers:0kB muxing overhead: 0.004062%
VLOG[2] (compute-mfcc-feats[5.5.931~1-aecd]:main():compute-mfcc-feats.cc:182) Processed features for key utt-009F09
ffmpeg version 3.4.8-0ubuntu0.2 Copyright (c) 2000-2020 the FFmpeg developers
  built with gcc 7 (Ubuntu 7.5.0-3ubuntu1~18.04)
  configuration: --prefix=/usr --extra-version=0ubuntu0.2 --toolchain=hardened --libdir=/usr/lib/x86_64-linux-gnu --incdir=/usr/include/x86_64-linux-gnu --enable-gpl --disable-stripping --enable-avresample --enable-avisynth --enable-gnutls --enable-ladspa --enable-libass --enable-libbluray --enable-libbs2b --enable-libcaca --enable-libcdio --enable-libflite --enable-libfontconfig --enable-libfreetype --enable-libfribidi --enable-libgme --enable-libgsm --enable-libmp3lame --enable-libmysofa --enable-libopenjpeg --enable-libopenmpt --enable-libopus --enable-libpulse --enable-librubberband --enable-librsvg --enable-libshine --enable-libsnappy --enable-libsoxr --enable-libspeex --enable-libssh --enable-libtheora --enable-libtwolame --enable-libvorbis --enable-libvpx --enable-libwavpack --enable-libwebp --enable-libx265 --enable-libxml2 --enable-libxvid --enable-libzmq --enable-libzvbi --enable-omx --enable-openal --enable-opengl --enable-sdl2 --enable-libdc1394 --enable-libdrm --enable-libiec61883 --enable-chromaprint --enable-frei0r --enable-libopencv --enable-libx264 --enable-shared
  libavutil      55. 78.100 / 55. 78.100
  libavcodec     57.107.100 / 57.107.100
  libavformat    57. 83.100 / 57. 83.100
  libavdevice    57. 10.100 / 57. 10.100
  libavfilter     6.107.100 /  6.107.100
  libavresample   3.  7.  0 /  3.  7.  0
  libswscale      4.  8.100 /  4.  8.100
  libswresample   2.  9.100 /  2.  9.100
  libpostproc    54.  7.100 / 54.  7.100
Guessed Channel Layout for Input Stream #0.0 : mono
Input #0, wav, from '/media/kaldinew/data2/large-farsdat/CD5/009/Fixed/009F10.wav':
  Duration: 00:01:50.33, bitrate: 352 kb/s
    Stream #0:0: Audio: pcm_s16le ([1][0][0][0] / 0x0001), 22050 Hz, mono, s16, 352 kb/s
Stream mapping:
  Stream #0:0 -> #0:0 (pcm_s16le (native) -> pcm_s16le (native))
Press [q] to stop, [?] for help
Output #0, wav, to 'pipe:':
  Metadata:
    ISFT            : Lavf57.83.100
VLOG[1] (compute-mfcc-feats[5.5.931~1-aecd]:Read():wave-reader.cc:249) Read in RIFF chunk size: 4294967295, data chunk size: 4294967295. Assume 'stream mode' (reading data to EOF).
    Stream #0:0: Audio: pcm_s16le ([1][0][0][0] / 0x0001), 8000 Hz, mono, s16, 128 kb/s
    Metadata:
      encoder         : Lavc57.107.100 pcm_s16le
size=     107kB time=00:00:06.87 bitrate= 128.1kbits/s speed=4.37x    size=     827kB time=00:00:52.93 bitrate= 128.0kbits/s speed=  17x    size=    1663kB time=00:01:46.43 bitrate= 128.0kbits/s speed=22.5x    size=    1724kB time=00:01:50.32 bitrate= 128.0kbits/s speed=23.3x    
video:0kB audio:1724kB subtitle:0kB other streams:0kB global headers:0kB muxing overhead: 0.004419%
VLOG[2] (compute-mfcc-feats[5.5.931~1-aecd]:main():compute-mfcc-feats.cc:182) Processed features for key utt-009F10
LOG (compute-mfcc-feats[5.5.931~1-aecd]:main():compute-mfcc-feats.cc:185)  Done 15 out of 15 utterances.
LOG (copy-feats[5.5.931~1-aecd]:main():copy-feats.cc:143) Copied 15 feature matrices.
# Accounting: time=73 threads=1
# Ended (code 0) at Mon Jun 21 15:39:07 EDT 2021, elapsed time 73 seconds
